<mxfile host="app.diagrams.net" modified="2023-07-27T15:40:00.864Z" agent="Mozilla/5.0 (Macintosh; Intel Mac OS X 10_15_7) AppleWebKit/537.36 (KHTML, like Gecko) Chrome/114.0.0.0 Safari/537.36" etag="_Kc9jgInJx4Xhogg_d5U" version="21.6.5" type="github">
  <diagram name="Page-1" id="099fd60b-425b-db50-ffb0-6b813814b670">
    <mxGraphModel dx="2258" dy="2645" grid="1" gridSize="10" guides="1" tooltips="1" connect="1" arrows="1" fold="1" page="1" pageScale="1" pageWidth="1600" pageHeight="1200" background="none" math="0" shadow="0">
      <root>
        <mxCell id="0" />
        <mxCell id="1" parent="0" />
        <mxCell id="sp0hdSV8DLhB2to6NDaH-4" value="Raspberry PI 4&lt;br&gt;&lt;a href=&quot;https://toptechboy.com/wp-content/uploads/2022/04/pinout-corrected.jpg&quot;&gt;pinout&lt;/a&gt;" style="rounded=0;whiteSpace=wrap;html=1;" vertex="1" parent="1">
          <mxGeometry x="90" y="250" width="280" height="200" as="geometry" />
        </mxCell>
        <mxCell id="sp0hdSV8DLhB2to6NDaH-5" value="Stepper drive&lt;br&gt;A4988&lt;br&gt;&lt;a href=&quot;https://www.tinytronics.nl/shop/image/data/product-614/A4988.pdf&quot;&gt;Datasheet&lt;/a&gt;" style="rounded=0;whiteSpace=wrap;html=1;" vertex="1" parent="1">
          <mxGeometry x="570" y="250" width="350" height="340" as="geometry" />
        </mxCell>
        <mxCell id="sp0hdSV8DLhB2to6NDaH-6" value="Not-Enable" style="text;html=1;strokeColor=none;fillColor=none;align=center;verticalAlign=middle;whiteSpace=wrap;rounded=0;" vertex="1" parent="1">
          <mxGeometry x="570" y="260" width="90" height="30" as="geometry" />
        </mxCell>
        <mxCell id="sp0hdSV8DLhB2to6NDaH-7" value="MS1" style="text;html=1;strokeColor=none;fillColor=none;align=center;verticalAlign=middle;whiteSpace=wrap;rounded=0;" vertex="1" parent="1">
          <mxGeometry x="570" y="300" width="60" height="30" as="geometry" />
        </mxCell>
        <mxCell id="sp0hdSV8DLhB2to6NDaH-8" value="MS2" style="text;html=1;strokeColor=none;fillColor=none;align=center;verticalAlign=middle;whiteSpace=wrap;rounded=0;" vertex="1" parent="1">
          <mxGeometry x="570" y="340" width="60" height="30" as="geometry" />
        </mxCell>
        <mxCell id="sp0hdSV8DLhB2to6NDaH-9" value="MS3" style="text;html=1;strokeColor=none;fillColor=none;align=center;verticalAlign=middle;whiteSpace=wrap;rounded=0;" vertex="1" parent="1">
          <mxGeometry x="570" y="380" width="60" height="30" as="geometry" />
        </mxCell>
        <mxCell id="sp0hdSV8DLhB2to6NDaH-10" value="Not-Reset" style="text;html=1;strokeColor=none;fillColor=none;align=center;verticalAlign=middle;whiteSpace=wrap;rounded=0;" vertex="1" parent="1">
          <mxGeometry x="570" y="420" width="60" height="30" as="geometry" />
        </mxCell>
        <mxCell id="sp0hdSV8DLhB2to6NDaH-55" style="edgeStyle=orthogonalEdgeStyle;rounded=0;orthogonalLoop=1;jettySize=auto;html=1;exitX=0;exitY=0.5;exitDx=0;exitDy=0;entryX=0;entryY=0.5;entryDx=0;entryDy=0;" edge="1" parent="1" source="sp0hdSV8DLhB2to6NDaH-11" target="sp0hdSV8DLhB2to6NDaH-10">
          <mxGeometry relative="1" as="geometry" />
        </mxCell>
        <mxCell id="sp0hdSV8DLhB2to6NDaH-11" value="Not-Sleep" style="text;html=1;strokeColor=none;fillColor=none;align=center;verticalAlign=middle;whiteSpace=wrap;rounded=0;" vertex="1" parent="1">
          <mxGeometry x="570" y="460" width="60" height="30" as="geometry" />
        </mxCell>
        <mxCell id="sp0hdSV8DLhB2to6NDaH-12" value="Step" style="text;html=1;strokeColor=none;fillColor=none;align=center;verticalAlign=middle;whiteSpace=wrap;rounded=0;" vertex="1" parent="1">
          <mxGeometry x="570" y="500" width="60" height="30" as="geometry" />
        </mxCell>
        <mxCell id="sp0hdSV8DLhB2to6NDaH-13" value="DIR" style="text;html=1;strokeColor=none;fillColor=none;align=center;verticalAlign=middle;whiteSpace=wrap;rounded=0;" vertex="1" parent="1">
          <mxGeometry x="570" y="540" width="60" height="30" as="geometry" />
        </mxCell>
        <mxCell id="sp0hdSV8DLhB2to6NDaH-45" style="edgeStyle=orthogonalEdgeStyle;rounded=0;orthogonalLoop=1;jettySize=auto;html=1;exitX=1;exitY=0.5;exitDx=0;exitDy=0;entryX=0.5;entryY=1;entryDx=0;entryDy=0;" edge="1" parent="1" source="sp0hdSV8DLhB2to6NDaH-19" target="sp0hdSV8DLhB2to6NDaH-43">
          <mxGeometry relative="1" as="geometry" />
        </mxCell>
        <mxCell id="sp0hdSV8DLhB2to6NDaH-19" value="VMOTOR" style="text;html=1;strokeColor=none;fillColor=none;align=center;verticalAlign=middle;whiteSpace=wrap;rounded=0;" vertex="1" parent="1">
          <mxGeometry x="830" y="260" width="75" height="30" as="geometry" />
        </mxCell>
        <mxCell id="sp0hdSV8DLhB2to6NDaH-46" style="edgeStyle=orthogonalEdgeStyle;rounded=0;orthogonalLoop=1;jettySize=auto;html=1;exitX=1;exitY=0.5;exitDx=0;exitDy=0;entryX=0.5;entryY=1;entryDx=0;entryDy=0;" edge="1" parent="1" source="sp0hdSV8DLhB2to6NDaH-20" target="sp0hdSV8DLhB2to6NDaH-44">
          <mxGeometry relative="1" as="geometry">
            <Array as="points">
              <mxPoint x="1000" y="315" />
            </Array>
          </mxGeometry>
        </mxCell>
        <mxCell id="sp0hdSV8DLhB2to6NDaH-20" value="GND" style="text;html=1;strokeColor=none;fillColor=none;align=center;verticalAlign=middle;whiteSpace=wrap;rounded=0;" vertex="1" parent="1">
          <mxGeometry x="845" y="300" width="60" height="30" as="geometry" />
        </mxCell>
        <mxCell id="sp0hdSV8DLhB2to6NDaH-21" value="2B" style="text;html=1;strokeColor=none;fillColor=none;align=center;verticalAlign=middle;whiteSpace=wrap;rounded=0;" vertex="1" parent="1">
          <mxGeometry x="845" y="340" width="60" height="30" as="geometry" />
        </mxCell>
        <mxCell id="sp0hdSV8DLhB2to6NDaH-22" value="2A" style="text;html=1;strokeColor=none;fillColor=none;align=center;verticalAlign=middle;whiteSpace=wrap;rounded=0;" vertex="1" parent="1">
          <mxGeometry x="845" y="380" width="60" height="30" as="geometry" />
        </mxCell>
        <mxCell id="sp0hdSV8DLhB2to6NDaH-23" value="1B" style="text;html=1;strokeColor=none;fillColor=none;align=center;verticalAlign=middle;whiteSpace=wrap;rounded=0;" vertex="1" parent="1">
          <mxGeometry x="845" y="420" width="60" height="30" as="geometry" />
        </mxCell>
        <mxCell id="sp0hdSV8DLhB2to6NDaH-24" value="1A" style="text;html=1;strokeColor=none;fillColor=none;align=center;verticalAlign=middle;whiteSpace=wrap;rounded=0;" vertex="1" parent="1">
          <mxGeometry x="845" y="460" width="60" height="30" as="geometry" />
        </mxCell>
        <mxCell id="sp0hdSV8DLhB2to6NDaH-26" value="GND" style="text;html=1;strokeColor=none;fillColor=none;align=center;verticalAlign=middle;whiteSpace=wrap;rounded=0;" vertex="1" parent="1">
          <mxGeometry x="845" y="540" width="60" height="30" as="geometry" />
        </mxCell>
        <mxCell id="sp0hdSV8DLhB2to6NDaH-27" value="VDD" style="text;html=1;strokeColor=none;fillColor=none;align=center;verticalAlign=middle;whiteSpace=wrap;rounded=0;" vertex="1" parent="1">
          <mxGeometry x="845" y="500" width="60" height="30" as="geometry" />
        </mxCell>
        <mxCell id="sp0hdSV8DLhB2to6NDaH-29" value="Stepper Motor&lt;br&gt;42BYGHW609&lt;br&gt;&lt;a href=&quot;https://github.com/m44rten1/draw.io/blob/23ad01225e49f5b1e74cf2c0ca69371e53874bfc/image.png&quot;&gt;wiring&lt;/a&gt;" style="rounded=0;whiteSpace=wrap;html=1;" vertex="1" parent="1">
          <mxGeometry x="1260" y="130" width="241" height="200" as="geometry" />
        </mxCell>
        <mxCell id="sp0hdSV8DLhB2to6NDaH-37" style="edgeStyle=orthogonalEdgeStyle;rounded=0;orthogonalLoop=1;jettySize=auto;html=1;exitX=0.5;exitY=1;exitDx=0;exitDy=0;entryX=1;entryY=0.5;entryDx=0;entryDy=0;" edge="1" parent="1" source="sp0hdSV8DLhB2to6NDaH-30" target="sp0hdSV8DLhB2to6NDaH-21">
          <mxGeometry relative="1" as="geometry" />
        </mxCell>
        <mxCell id="sp0hdSV8DLhB2to6NDaH-30" value="A" style="text;html=1;strokeColor=none;fillColor=none;align=center;verticalAlign=middle;whiteSpace=wrap;rounded=0;" vertex="1" parent="1">
          <mxGeometry x="1260" y="290" width="41" height="30" as="geometry" />
        </mxCell>
        <mxCell id="sp0hdSV8DLhB2to6NDaH-31" value="0" style="text;html=1;strokeColor=none;fillColor=none;align=center;verticalAlign=middle;whiteSpace=wrap;rounded=0;" vertex="1" parent="1">
          <mxGeometry x="1301" y="290" width="41" height="30" as="geometry" />
        </mxCell>
        <mxCell id="sp0hdSV8DLhB2to6NDaH-39" style="edgeStyle=orthogonalEdgeStyle;rounded=0;orthogonalLoop=1;jettySize=auto;html=1;exitX=0.5;exitY=1;exitDx=0;exitDy=0;entryX=1;entryY=0.5;entryDx=0;entryDy=0;" edge="1" parent="1" source="sp0hdSV8DLhB2to6NDaH-32" target="sp0hdSV8DLhB2to6NDaH-22">
          <mxGeometry relative="1" as="geometry">
            <Array as="points">
              <mxPoint x="1360" y="395" />
            </Array>
          </mxGeometry>
        </mxCell>
        <mxCell id="sp0hdSV8DLhB2to6NDaH-32" value="C" style="text;html=1;strokeColor=none;fillColor=none;align=center;verticalAlign=middle;whiteSpace=wrap;rounded=0;" vertex="1" parent="1">
          <mxGeometry x="1339.5" y="290" width="41" height="30" as="geometry" />
        </mxCell>
        <mxCell id="sp0hdSV8DLhB2to6NDaH-40" style="edgeStyle=orthogonalEdgeStyle;rounded=0;orthogonalLoop=1;jettySize=auto;html=1;exitX=0.5;exitY=1;exitDx=0;exitDy=0;entryX=1;entryY=0.5;entryDx=0;entryDy=0;" edge="1" parent="1" source="sp0hdSV8DLhB2to6NDaH-33" target="sp0hdSV8DLhB2to6NDaH-23">
          <mxGeometry relative="1" as="geometry">
            <Array as="points">
              <mxPoint x="1400" y="320" />
              <mxPoint x="1400" y="435" />
            </Array>
          </mxGeometry>
        </mxCell>
        <mxCell id="sp0hdSV8DLhB2to6NDaH-33" value="B" style="text;html=1;strokeColor=none;fillColor=none;align=center;verticalAlign=middle;whiteSpace=wrap;rounded=0;" vertex="1" parent="1">
          <mxGeometry x="1380.5" y="290" width="41" height="30" as="geometry" />
        </mxCell>
        <mxCell id="sp0hdSV8DLhB2to6NDaH-34" value="0" style="text;html=1;strokeColor=none;fillColor=none;align=center;verticalAlign=middle;whiteSpace=wrap;rounded=0;" vertex="1" parent="1">
          <mxGeometry x="1419" y="290" width="41" height="30" as="geometry" />
        </mxCell>
        <mxCell id="sp0hdSV8DLhB2to6NDaH-41" style="edgeStyle=orthogonalEdgeStyle;rounded=0;orthogonalLoop=1;jettySize=auto;html=1;exitX=0.5;exitY=1;exitDx=0;exitDy=0;entryX=1;entryY=0.5;entryDx=0;entryDy=0;" edge="1" parent="1" source="sp0hdSV8DLhB2to6NDaH-35" target="sp0hdSV8DLhB2to6NDaH-24">
          <mxGeometry relative="1" as="geometry">
            <Array as="points">
              <mxPoint x="1481" y="475" />
            </Array>
          </mxGeometry>
        </mxCell>
        <mxCell id="sp0hdSV8DLhB2to6NDaH-35" value="D" style="text;html=1;strokeColor=none;fillColor=none;align=center;verticalAlign=middle;whiteSpace=wrap;rounded=0;" vertex="1" parent="1">
          <mxGeometry x="1460" y="290" width="41" height="30" as="geometry" />
        </mxCell>
        <mxCell id="sp0hdSV8DLhB2to6NDaH-42" value="Power Supply&lt;br&gt;12V / 2A" style="rounded=0;whiteSpace=wrap;html=1;" vertex="1" parent="1">
          <mxGeometry x="900" y="-10" width="160" height="120" as="geometry" />
        </mxCell>
        <mxCell id="sp0hdSV8DLhB2to6NDaH-43" value="+" style="text;html=1;strokeColor=none;fillColor=none;align=center;verticalAlign=middle;whiteSpace=wrap;rounded=0;" vertex="1" parent="1">
          <mxGeometry x="940" y="70" width="40" height="30" as="geometry" />
        </mxCell>
        <mxCell id="sp0hdSV8DLhB2to6NDaH-44" value="-" style="text;html=1;strokeColor=none;fillColor=none;align=center;verticalAlign=middle;whiteSpace=wrap;rounded=0;" vertex="1" parent="1">
          <mxGeometry x="980" y="70" width="40" height="30" as="geometry" />
        </mxCell>
        <mxCell id="sp0hdSV8DLhB2to6NDaH-48" style="edgeStyle=orthogonalEdgeStyle;rounded=0;orthogonalLoop=1;jettySize=auto;html=1;exitX=0;exitY=0.5;exitDx=0;exitDy=0;exitPerimeter=0;" edge="1" parent="1" source="sp0hdSV8DLhB2to6NDaH-47">
          <mxGeometry relative="1" as="geometry">
            <mxPoint x="960" y="160.28571428571422" as="targetPoint" />
          </mxGeometry>
        </mxCell>
        <mxCell id="sp0hdSV8DLhB2to6NDaH-49" style="edgeStyle=orthogonalEdgeStyle;rounded=0;orthogonalLoop=1;jettySize=auto;html=1;exitX=1;exitY=0.5;exitDx=0;exitDy=0;exitPerimeter=0;" edge="1" parent="1" source="sp0hdSV8DLhB2to6NDaH-47">
          <mxGeometry relative="1" as="geometry">
            <mxPoint x="1000" y="210" as="targetPoint" />
            <Array as="points">
              <mxPoint x="1160" y="160" />
              <mxPoint x="1160" y="210" />
            </Array>
          </mxGeometry>
        </mxCell>
        <mxCell id="sp0hdSV8DLhB2to6NDaH-47" value="" style="pointerEvents=1;verticalLabelPosition=bottom;shadow=0;dashed=0;align=center;html=1;verticalAlign=top;shape=mxgraph.electrical.capacitors.capacitor_3;" vertex="1" parent="1">
          <mxGeometry x="1040" y="130" width="100" height="60" as="geometry" />
        </mxCell>
        <mxCell id="sp0hdSV8DLhB2to6NDaH-50" value="100uF" style="text;html=1;strokeColor=none;fillColor=none;align=center;verticalAlign=middle;whiteSpace=wrap;rounded=0;" vertex="1" parent="1">
          <mxGeometry x="1108.5" y="120" width="60" height="30" as="geometry" />
        </mxCell>
        <mxCell id="sp0hdSV8DLhB2to6NDaH-54" style="edgeStyle=orthogonalEdgeStyle;rounded=0;orthogonalLoop=1;jettySize=auto;html=1;exitX=1;exitY=0.5;exitDx=0;exitDy=0;entryX=0;entryY=0.5;entryDx=0;entryDy=0;" edge="1" parent="1" source="sp0hdSV8DLhB2to6NDaH-51" target="sp0hdSV8DLhB2to6NDaH-12">
          <mxGeometry relative="1" as="geometry">
            <Array as="points">
              <mxPoint x="510" y="345" />
              <mxPoint x="510" y="515" />
            </Array>
          </mxGeometry>
        </mxCell>
        <mxCell id="sp0hdSV8DLhB2to6NDaH-51" value="12" style="text;html=1;strokeColor=none;fillColor=none;align=center;verticalAlign=middle;whiteSpace=wrap;rounded=0;" vertex="1" parent="1">
          <mxGeometry x="300" y="330" width="60" height="30" as="geometry" />
        </mxCell>
        <mxCell id="sp0hdSV8DLhB2to6NDaH-53" style="edgeStyle=orthogonalEdgeStyle;rounded=0;orthogonalLoop=1;jettySize=auto;html=1;exitX=1;exitY=0.5;exitDx=0;exitDy=0;entryX=0;entryY=0.5;entryDx=0;entryDy=0;" edge="1" parent="1" source="sp0hdSV8DLhB2to6NDaH-52" target="sp0hdSV8DLhB2to6NDaH-13">
          <mxGeometry relative="1" as="geometry" />
        </mxCell>
        <mxCell id="sp0hdSV8DLhB2to6NDaH-52" value="16" style="text;html=1;strokeColor=none;fillColor=none;align=center;verticalAlign=middle;whiteSpace=wrap;rounded=0;" vertex="1" parent="1">
          <mxGeometry x="300" y="380" width="60" height="30" as="geometry" />
        </mxCell>
        <mxCell id="sp0hdSV8DLhB2to6NDaH-59" style="edgeStyle=orthogonalEdgeStyle;rounded=0;orthogonalLoop=1;jettySize=auto;html=1;exitX=0.5;exitY=1;exitDx=0;exitDy=0;entryX=1;entryY=0.5;entryDx=0;entryDy=0;" edge="1" parent="1" source="sp0hdSV8DLhB2to6NDaH-56" target="sp0hdSV8DLhB2to6NDaH-27">
          <mxGeometry relative="1" as="geometry">
            <Array as="points">
              <mxPoint x="130" y="660" />
              <mxPoint x="980" y="660" />
              <mxPoint x="980" y="515" />
            </Array>
          </mxGeometry>
        </mxCell>
        <mxCell id="sp0hdSV8DLhB2to6NDaH-56" value="1" style="text;html=1;strokeColor=none;fillColor=none;align=center;verticalAlign=middle;whiteSpace=wrap;rounded=0;" vertex="1" parent="1">
          <mxGeometry x="100" y="410" width="60" height="30" as="geometry" />
        </mxCell>
        <mxCell id="sp0hdSV8DLhB2to6NDaH-58" style="edgeStyle=orthogonalEdgeStyle;rounded=0;orthogonalLoop=1;jettySize=auto;html=1;exitX=0.5;exitY=1;exitDx=0;exitDy=0;entryX=1;entryY=0.5;entryDx=0;entryDy=0;" edge="1" parent="1" source="sp0hdSV8DLhB2to6NDaH-57" target="sp0hdSV8DLhB2to6NDaH-26">
          <mxGeometry relative="1" as="geometry">
            <Array as="points">
              <mxPoint x="210" y="620" />
              <mxPoint x="960" y="620" />
              <mxPoint x="960" y="555" />
            </Array>
          </mxGeometry>
        </mxCell>
        <mxCell id="sp0hdSV8DLhB2to6NDaH-57" value="9" style="text;html=1;strokeColor=none;fillColor=none;align=center;verticalAlign=middle;whiteSpace=wrap;rounded=0;" vertex="1" parent="1">
          <mxGeometry x="180" y="410" width="60" height="30" as="geometry" />
        </mxCell>
        <mxCell id="sp0hdSV8DLhB2to6NDaH-61" style="edgeStyle=orthogonalEdgeStyle;rounded=0;orthogonalLoop=1;jettySize=auto;html=1;exitX=0;exitY=0.5;exitDx=0;exitDy=0;exitPerimeter=0;" edge="1" parent="1" source="sp0hdSV8DLhB2to6NDaH-60">
          <mxGeometry relative="1" as="geometry">
            <mxPoint x="560" y="660" as="targetPoint" />
          </mxGeometry>
        </mxCell>
        <mxCell id="sp0hdSV8DLhB2to6NDaH-62" style="edgeStyle=orthogonalEdgeStyle;rounded=0;orthogonalLoop=1;jettySize=auto;html=1;exitX=1;exitY=0.5;exitDx=0;exitDy=0;exitPerimeter=0;" edge="1" parent="1" source="sp0hdSV8DLhB2to6NDaH-60">
          <mxGeometry relative="1" as="geometry">
            <mxPoint x="720" y="620" as="targetPoint" />
          </mxGeometry>
        </mxCell>
        <mxCell id="sp0hdSV8DLhB2to6NDaH-60" value="" style="pointerEvents=1;verticalLabelPosition=bottom;shadow=0;dashed=0;align=center;html=1;verticalAlign=top;shape=mxgraph.electrical.capacitors.capacitor_3;" vertex="1" parent="1">
          <mxGeometry x="590" y="700" width="100" height="60" as="geometry" />
        </mxCell>
        <mxCell id="sp0hdSV8DLhB2to6NDaH-63" value="10uF" style="text;html=1;strokeColor=none;fillColor=none;align=center;verticalAlign=middle;whiteSpace=wrap;rounded=0;" vertex="1" parent="1">
          <mxGeometry x="660" y="740" width="60" height="30" as="geometry" />
        </mxCell>
      </root>
    </mxGraphModel>
  </diagram>
</mxfile>
